HIERARCHY
ROOT hip
{
	OFFSET 0.000000 0.000000 0.000000 
	CHANNELS 6 Xposition Yposition Zposition Xrotation Zrotation Yrotation
	JOINT abdomen
	{
		OFFSET 0.000000 3.402643 0.000000 
		CHANNELS 3 Xrotation Zrotation Yrotation
		JOINT chest
		{
			OFFSET 0.000000 8.438565 -0.680529 
			CHANNELS 3 Xrotation Zrotation Yrotation
			JOINT neck
			{
				OFFSET 0.000000 10.207942 -0.272212 
				CHANNELS 3 Xrotation Zrotation Yrotation
				JOINT head
				{
					OFFSET 0.000000 3.130431 0.000000 
					CHANNELS 3 Xrotation Zrotation Yrotation
					End Site
					{
						OFFSET 0.000000 3.130435 0.000000 
					}
				}
			}
			JOINT lCollar
			{
				OFFSET 3.470700 6.669187 -0.816635 
				CHANNELS 3 Yrotation Zrotation Xrotation
				JOINT lShldr
				{
					OFFSET 3.198488 0.000000 0.000000 
					CHANNELS 3 Zrotation Yrotation Xrotation
					JOINT lForeArm
					{
						OFFSET 10.139888 0.000000 0.000000 
						CHANNELS 3 Yrotation Zrotation Xrotation
						JOINT lHand
						{
							OFFSET 8.370511 0.000000 0.000000 
							CHANNELS 3 Zrotation Yrotation Xrotation
							End Site
							{
								OFFSET 4.083176 0.000000 0.000000 
							}
						}
					}
				}
			}
			JOINT rCollar
			{
				OFFSET -3.470700 6.669187 -0.816635 
				CHANNELS 3 Yrotation Zrotation Xrotation
				JOINT rShldr
				{
					OFFSET -3.198488 0.000000 0.000000 
					CHANNELS 3 Zrotation Yrotation Xrotation
					JOINT rForeArm
					{
						OFFSET -10.139888 0.000000 0.000000 
						CHANNELS 3 Yrotation Zrotation Xrotation
						JOINT rHand
						{
							OFFSET -8.370511 0.000000 0.000000 
							CHANNELS 3 Zrotation Yrotation Xrotation
							End Site
							{
								OFFSET -4.083176 0.000000 0.000000 
							}
						}
					}
				}
			}
		}
	}
	JOINT lThigh
	{
		OFFSET 5.308129 -1.633274 1.361059 
		CHANNELS 3 Xrotation Zrotation Yrotation
		JOINT lShin
		{
			OFFSET -2.041588 -20.007561 0.000000 
			CHANNELS 3 Xrotation Zrotation Yrotation
			JOINT lFoot
			{
				OFFSET 0.000000 -19.190928 -1.224953 
				CHANNELS 3 Xrotation Yrotation Zrotation
				End Site
				{
					OFFSET 0.000000 -2.449906 4.627600 
				}
			}
		}
	}
	JOINT rThigh
	{
		OFFSET -5.308129 -1.633274 1.361059 
		CHANNELS 3 Xrotation Zrotation Yrotation
		JOINT rShin
		{
			OFFSET 2.041588 -20.007561 0.000000 
			CHANNELS 3 Xrotation Zrotation Yrotation
			JOINT rFoot
			{
				OFFSET 0.000000 -19.190928 -1.224953 
				CHANNELS 3 Xrotation Yrotation Zrotation
				End Site
				{
					OFFSET 0.000000 -2.449906 4.627600 
				}
			}
		}
	}
}
MOTION
Frames: 6
Frame Time: 0.011111
33.607990 49.919022 -15.756404 -2.788016 2.728234 -8.179257 29.574671 -3.744629 1.429763 -22.206181 -1.006390 0.895645 -18.287071 -2.912915 1.653564 -7.892481 1.404086 2.036362 0.736540 -9.814158 1.078738 -70.058647 -19.881327 5.911380 -44.282902 6.164958 5.933670 8.524705 12.647240 -26.077528 -3.299667 11.850037 1.750699 59.038555 35.599483 42.926426 73.659851 -8.571637 18.935713 -8.534408 -12.637552 65.941261 -21.010445 -0.732550 0.346965 45.278347 -4.231369 -6.700211 -20.921652 3.273357 -1.451755 6.599067 -7.915923 6.157600 63.384907 2.324665 8.406216 8.831759 -11.812458 4.357215 
33.638042 50.064800 -15.004196 -2.818525 3.021952 -8.087717 29.546387 -3.870623 1.119022 -22.225735 -0.990533 0.826617 -18.342241 -2.695126 1.656725 -7.648824 1.162841 2.149522 0.736540 -9.814158 1.078738 -70.033821 -20.447554 6.933197 -44.919724 6.359498 6.174238 8.524705 12.647240 -25.403698 -3.299667 11.850037 1.750699 59.673771 35.221798 42.592197 71.962799 -8.888742 18.066523 -8.534408 -12.637552 65.335793 -19.710257 -1.298580 0.237719 44.854595 -4.267538 -6.658777 -21.514950 3.222897 -1.388122 4.450868 -8.137719 6.044174 65.531799 2.051916 8.570755 6.559735 -12.551515 4.198968 
33.648590 50.179565 -14.272448 -2.906931 2.817620 -7.828403 29.733486 -3.395777 0.888260 -22.235668 -1.036176 0.712051 -18.707830 -2.292895 1.580776 -6.999574 0.367415 2.193946 0.736540 -9.814158 1.078738 -69.919266 -21.169306 8.383710 -45.536446 6.536181 6.403330 8.524705 12.647240 -24.388073 -3.299667 11.850037 1.750699 60.180367 34.886299 42.244675 70.300270 -9.125311 17.235628 -8.534408 -12.637552 64.681503 -18.381741 -1.376877 -0.089990 44.420982 -4.306539 -6.607220 -22.212305 2.990044 -1.379326 2.831138 -7.808685 5.621521 67.268005 1.855845 8.694891 4.943614 -12.849051 3.998706 
33.648590 50.279942 -13.555084 -2.898596 2.388056 -7.454184 29.824011 -2.691146 0.920217 -22.255562 -1.186719 0.642921 -18.764856 -2.171119 1.542061 -6.601733 0.041714 2.171022 0.736540 -9.814158 1.078738 -69.646812 -21.987425 10.076738 -46.329926 6.759511 6.709079 8.524705 12.647240 -23.665417 -3.299667 11.850037 1.750699 60.614079 34.220360 41.747746 68.806122 -9.284090 16.506638 -8.534408 -12.637552 64.730324 -17.264538 -1.142534 -0.487623 43.917786 -4.355433 -6.553762 -22.971876 2.514818 -1.445778 1.220477 -7.163545 4.985627 68.690933 1.669675 8.796638 3.286641 -13.240819 3.790513 
33.647312 50.485825 -12.814385 -2.908993 2.142615 -7.256448 29.856888 -2.318239 1.068280 -22.246132 -1.333633 0.641680 -18.228321 -2.247296 1.647323 -7.077058 0.315480 2.364584 0.736540 -9.814158 1.078738 -69.306198 -22.736605 11.642069 -47.385643 7.052770 7.118482 8.524705 12.647240 -22.913464 -3.299667 11.850037 1.750699 61.141335 33.395508 41.058414 67.292694 -9.392017 15.781786 -8.534408 -12.637552 64.779152 -16.071306 -1.025847 -0.741612 43.287460 -4.390425 -6.492918 -23.267073 2.136339 -1.555760 -0.731119 -6.691659 4.986595 69.889595 1.524246 8.875226 0.751084 -14.354731 3.400302 
33.644432 50.719822 -12.065374 -2.997111 2.186392 -7.145245 29.950266 -2.246294 0.855760 -22.118990 -1.250572 0.575098 -18.066498 -2.564985 1.815855 -7.266726 0.805071 2.538859 0.736540 -9.814158 1.078738 -69.190987 -23.487637 12.822646 -48.713951 7.391562 7.637253 8.524705 12.647240 -22.063854 -3.299667 11.850037 1.750699 61.572510 32.934570 40.552780 65.559959 -9.453322 14.955095 -8.534408 -12.637552 64.339699 -14.716722 -1.210523 -0.957076 42.486774 -4.472326 -6.415186 -23.226324 2.170950 -1.557052 -2.798511 -6.524628 5.284412 70.961563 1.406726 8.941220 -1.870324 -15.040003 2.874197 
